<svg xmlns="http://www.w3.org/2000/svg" xmlns:xlink="http://www.w3.org/1999/xlink" viewBox="0 0 563 291"><defs><style>.cls-1,.cls-4{fill:none;}.cls-2{fill:#b8dfd8;}.cls-2,.cls-3,.cls-4,.cls-7{stroke:#000;}.cls-2,.cls-3,.cls-4,.cls-7,.cls-8{stroke-linecap:round;}.cls-2,.cls-3,.cls-4{stroke-linejoin:round;}.cls-3,.cls-5{fill:#ffb319;}.cls-6{isolation:isolate;}.cls-7,.cls-8{stroke-miterlimit:10;stroke-width:3px;}.cls-7{mix-blend-mode:hue;fill:url(#New_Gradient_Swatch_1);}.cls-8{fill:url(#New_Pattern_2);stroke:url(#New_Gradient_Swatch_1-2);}</style><linearGradient id="New_Gradient_Swatch_1" x1="1.5" y1="145.5" x2="561.5" y2="145.5" gradientUnits="userSpaceOnUse"><stop offset="0" stop-color="#b600ff"/><stop offset="0" stop-color="#b905f6"/><stop offset="0" stop-color="#ba08f0"/><stop offset="0.02" stop-color="#bd0be5"/><stop offset="0.05" stop-color="#c512c9"/><stop offset="0.09" stop-color="#d31d9b"/><stop offset="0.14" stop-color="#e52d5b"/><stop offset="0.19" stop-color="#fc410a"/><stop offset="0.2" stop-color="#ff4300"/><stop offset="0.51" stop-color="#ffc325"/><stop offset="0.83" stop-color="#a0d732"/><stop offset="1" stop-color="#1586ff"/></linearGradient><pattern id="New_Pattern_2" data-name="New Pattern 2" x="1.5" y="1.5" width="77" height="126" patternUnits="userSpaceOnUse" viewBox="0 0 77 126"><rect class="cls-1" width="77" height="126"/><path class="cls-2" d="M73.55,156.66l53.8-14.42L88,102.86l-14.41,53.8m-4.24,4.24,1.34-5,14.42-53.8,1.34-5,3.68,3.68,39.38,39.38,3.67,3.67-5,1.35L74.33,159.55l-5,1.35Z"/><path class="cls-3" d="M26.65,109.76h0m0,0L66,149.14l14.41-53.8-53.8,14.42m-5.79-1.55,5-1.35L79.67,92.45l5-1.35-1.34,5-14.42,53.8-1.34,5-3.68-3.68L24.53,111.88l-3.67-3.67Zm3.67,3.67h0Zm4.24-4.24h0Z"/><line class="cls-4" x1="80.45" y1="95.34" x2="63.4" y2="112.4"/><line class="cls-4" x1="26.65" y1="109.76" x2="63.4" y2="112.4"/><line class="cls-4" x1="66.04" y1="149.14" x2="63.4" y2="112.4"/><path class="cls-2" d="M-3.45,156.66l53.8-14.42L11,102.86l-14.41,53.8m-4.24,4.24,1.34-5,14.42-53.8,1.34-5,3.68,3.68,39.38,39.38,3.67,3.67-5,1.35L-2.67,159.55l-5,1.35Z"/><line class="cls-4" x1="10.96" y1="102.86" x2="13.6" y2="139.6"/><path class="cls-3" d="M-50.35,109.76h0m0,0L-11,149.14,3.45,95.34l-53.8,14.42m-5.79-1.55,5-1.35L2.67,92.45l5-1.35-1.34,5-14.42,53.8-1.34,5-3.68-3.68-39.38-39.38-3.67-3.67Zm3.67,3.67h0Zm4.24-4.24h0Z"/><line class="cls-4" x1="3.45" y1="95.34" x2="-13.6" y2="112.4"/><path class="cls-5" d="M28.22,108.53c.64,0,1.59-.18,1.9-.84s-.24-1-.83-1-1.59.18-1.9.84.24,1,.83,1Z"/><path class="cls-3" d="M65.15,46.76h0m0,0,39.39,39.38L119,32.34,65.15,46.76m-5.79-1.55,5-1.35,53.79-14.41,5-1.35-1.34,5-14.42,53.8-1.34,5-3.68-3.68L63,48.88l-3.67-3.67ZM63,48.88h0Zm4.24-4.24h0Z"/><line class="cls-4" x1="65.15" y1="46.76" x2="101.9" y2="49.4"/><path class="cls-2" d="M35.05,93.66l53.8-14.42L49.46,39.86,35.05,93.66M30.81,97.9l1.34-5,14.42-53.8,1.34-5,3.68,3.68L91,77.12l3.67,3.67-5,1.35L35.83,96.55l-5,1.35Z"/><line class="cls-4" x1="35.05" y1="93.66" x2="52.1" y2="76.6"/><line class="cls-4" x1="88.85" y1="79.24" x2="52.1" y2="76.6"/><line class="cls-4" x1="49.46" y1="39.86" x2="52.1" y2="76.6"/><path class="cls-3" d="M-11.85,46.76h0m0,0L27.54,86.14,42,32.34l-53.8,14.42m-5.79-1.55,5-1.35L41.17,29.45l5-1.35-1.34,5L30.43,86.92l-1.34,5-3.68-3.68L-14,48.88l-3.67-3.67ZM-14,48.88h0Zm4.24-4.24h0Z"/><line class="cls-4" x1="41.95" y1="32.34" x2="24.9" y2="49.4"/><line class="cls-4" x1="-11.85" y1="46.76" x2="24.9" y2="49.4"/><line class="cls-4" x1="27.54" y1="86.14" x2="24.9" y2="49.4"/><path class="cls-5" d="M66.72,45.53c.64,0,1.59-.18,1.9-.84s-.24-1-.83-1-1.59.18-1.9.84.24,1,.83,1Z"/><path class="cls-2" d="M-41.95,93.66l53.8-14.42L-27.54,39.86l-14.41,53.8m-4.24,4.24,1.34-5,14.42-53.8,1.34-5,3.68,3.68L14,77.12l3.67,3.67-5,1.35L-41.17,96.55l-5,1.35Z"/><line class="cls-4" x1="11.85" y1="79.24" x2="-24.9" y2="76.6"/><path class="cls-2" d="M73.55,30.66l53.8-14.42L88-23.14,73.55,30.66M69.31,34.9l1.34-5,14.42-53.8,1.34-5,3.68,3.68,39.38,39.38,3.67,3.67-5,1.35L74.33,33.55l-5,1.35Z"/><line class="cls-4" x1="73.55" y1="30.66" x2="90.6" y2="13.6"/><path class="cls-3" d="M26.65-16.24h0m0,0L66,23.14l14.41-53.8L26.65-16.24m-5.79-1.55,5-1.35L79.67-33.55l5-1.35-1.34,5L68.93,23.92l-1.34,5-3.68-3.68L24.53-14.12l-3.67-3.67Zm3.67,3.67h0Zm4.24-4.24h0Z"/><line class="cls-4" x1="66.04" y1="23.14" x2="63.4" y2="-13.6"/><path class="cls-2" d="M-3.45,30.66l53.8-14.42L11-23.14-3.45,30.66M-7.69,34.9l1.34-5L8.07-23.92l1.34-5,3.68,3.68L52.47,14.12l3.67,3.67-5,1.35L-2.67,33.55l-5,1.35Z"/><line class="cls-4" x1="-3.45" y1="30.66" x2="13.6" y2="13.6"/><line class="cls-4" x1="50.35" y1="16.24" x2="13.6" y2="13.6"/><line class="cls-4" x1="10.96" y1="-23.14" x2="13.6" y2="13.6"/><path class="cls-3" d="M-50.35-16.24h0m0,0L-11,23.14,3.45-30.66l-53.8,14.42m-5.79-1.55,5-1.35L2.67-33.55l5-1.35-1.34,5L-8.07,23.92l-1.34,5-3.68-3.68L-52.47-14.12l-3.67-3.67Zm3.67,3.67h0Zm4.24-4.24h0Z"/></pattern><linearGradient id="New_Gradient_Swatch_1-2" x1="0" y1="145.8" x2="563" y2="145.8" xlink:href="#New_Gradient_Swatch_1"/></defs><g class="cls-6"><g id="Layer_2" data-name="Layer 2"><rect class="cls-7" x="1.5" y="1.5" width="560" height="288"/></g><g id="Layer_1" data-name="Layer 1"><rect class="cls-8" x="1.5" y="2.11" width="560" height="287.39"/></g><g id="Layer_3" data-name="Layer 3"><text x="1.5" y="1.5"/></g></g></svg>